<?xml version="1.0" encoding="utf-8"?>
<!-- Generator: Adobe Illustrator 19.2.1, SVG Export Plug-In . SVG Version: 6.00 Build 0)  -->
<svg version="1.1" id="Capa_1" xmlns="http://www.w3.org/2000/svg" xmlns:xlink="http://www.w3.org/1999/xlink" x="0px" y="0px"
	 viewBox="0 0 920 852" style="enable-background:new 0 0 920 852;" xml:space="preserve">
<style type="text/css">
	.st0{fill:#F2F2F2;}
	.st1{fill:#1E44AC;}
	.st2{fill:#1E2E57;}
</style>
<path class="st0" d="M711,20H209C122.8,20,53,89.8,53,176v502c0,86.2,69.8,156,156,156h502c86.2,0,156-69.8,156-156V176
	C867,89.8,797.2,20,711,20z M352.1,187.7c31.6-26.8,77.6-21.9,105.7,7.7l10.3,11.6l11.2-11.6c28.1-29.6,74-34.5,104.9-7.7
	c35.4,30.6,37.2,85.6,5.7,118.7L481.7,420.6c-7,7.4-18.5,7.4-25.5,0L347.4,306.4C315.7,273.3,317.7,218.3,352.1,187.7z M722.1,539.8
	l-126.7,93.3c-16.7,12.3-37.2,19-57.8,19H213.2c-7.4,0-14.2-6.8-14.2-15l0-88.3c0-8.2,6-15,14.2-15l51.9,0l43.6-35.4
	c19.7-15.9,45-24.6,69.5-24.6H529c18.3,0,32.7,17.1,29.6,35c-2.5,14.8-17.1,25-31.3,25H454c-7.4,0-14.2,6-14.2,14.2
	c0,7.4,6,14.2,14.2,14.2H567l112.2-82.7c16.7-12.4,40.1-8.8,52.4,7.9C744,504.1,740.4,527.5,722.1,539.8z"/>
<path class="st1" d="M456.2,420.6c7,7.4,18.5,7.4,25.5,0l108.1-114.2c31.5-33.1,29.7-88.1-5.7-118.7c-30.9-26.8-76.7-21.9-104.9,7.7
	L468.1,207l-10.3-11.6c-28.1-29.6-74.1-34.5-105.7-7.7c-34.4,30.6-36.4,85.6-4.7,118.7L456.2,420.6z"/>
<path class="st2" d="M679.3,479.5L567,562.1H454c-8.2,0-14.2-6.8-14.2-14.2c0-8.2,6.8-14.2,14.2-14.2h73.4c14.2,0,28.8-10.2,31.3-25
	c3-17.9-11.4-35-29.6-35H378.2c-24.5,0-49.8,8.7-69.5,24.6l-43.6,35.4l-51.9,0c-8.2,0-14.2,6.8-14.2,15l0,88.3c0,8.3,6.8,15,14.2,15
	h324.5c20.7,0,41.2-6.7,57.8-19l126.7-93.3c18.3-12.3,21.8-35.7,9.6-52.4C719.4,470.7,695.9,467.1,679.3,479.5z"/>
</svg>
