<?xml version="1.0" encoding="utf-8"?>
<!-- Generator: Adobe Illustrator 19.2.1, SVG Export Plug-In . SVG Version: 6.00 Build 0)  -->
<svg version="1.1" id="Capa_3" xmlns="http://www.w3.org/2000/svg" xmlns:xlink="http://www.w3.org/1999/xlink" x="0px" y="0px"
	 viewBox="0 0 920 852" style="enable-background:new 0 0 920 852;" xml:space="preserve">
<style type="text/css">
	.st0{fill:#F2F2F2;}
	.st1{fill:#1E44AC;}
	.st2{fill:#1E2E57;}
</style>
<rect x="390" y="222" class="st0" width="160" height="48"/>
<path class="st0" d="M711,20H209C122.8,20,53,89.8,53,176v502c0,86.2,69.8,156,156,156h502c86.2,0,156-69.8,156-156V176
	C867,89.8,797.2,20,711,20z M278,654h-16c-25.6,0-48-22.4-48-48V318c0-25.6,22.4-48,48-48h16V654z M630,654H310V270h32v-48
	c0-25.6,22.4-48,48-48h160c25.6,0,48,22.4,48,48v48h32V654z M726,606c0,25.6-22.4,48-48,48h-16V270h16c25.6,0,48,22.4,48,48V606z"/>
<path class="st0" d="M558,430h-56v-56c0-4.4-3.6-8-8-8h-48c-4.4,0-8,3.6-8,8v56h-56c-4.4,0-8,3.6-8,8v48c0,4.4,3.6,8,8,8h56v56
	c0,4.4,3.6,8,8,8h48c4.4,0,8-3.6,8-8v-56h56c4.4,0,8-3.6,8-8v-48C566,433.6,562.4,430,558,430z"/>
<path class="st1" d="M214,318v288c0,25.6,22.4,48,48,48h16V270h-16C236.4,270,214,292.4,214,318z"/>
<path class="st1" d="M678,270h-16v384h16c25.6,0,48-22.4,48-48V318C726,292.4,703.6,270,678,270z"/>
<path class="st2" d="M598,222c0-25.6-22.4-48-48-48H390c-25.6,0-48,22.4-48,48v48h-32v384h320V270h-32V222z M390,222h160v48H390V222
	z M566,486c0,4.4-3.6,8-8,8h-56v56c0,4.4-3.6,8-8,8h-48c-4.4,0-8-3.6-8-8v-56h-56c-4.4,0-8-3.6-8-8v-48c0-4.4,3.6-8,8-8h56v-56
	c0-4.4,3.6-8,8-8h48c4.4,0,8,3.6,8,8v56h56c4.4,0,8,3.6,8,8V486z"/>
</svg>
