<?xml version="1.0" encoding="utf-8"?>
<!-- Generator: Adobe Illustrator 19.2.1, SVG Export Plug-In . SVG Version: 6.00 Build 0)  -->
<svg version="1.1" id="Capa_2" xmlns="http://www.w3.org/2000/svg" xmlns:xlink="http://www.w3.org/1999/xlink" x="0px" y="0px"
	 viewBox="0 0 920 852" style="enable-background:new 0 0 920 852;" xml:space="preserve">
<style type="text/css">
	.st0{fill:#F2F2F2;}
	.st1{fill:#1E2E57;}
	.st2{fill:#1E44AC;}
</style>
<path class="st0" d="M717.8,23.5h-514c-83,0-150.2,67.3-150.2,150.2v514c0,83,67.3,150.2,150.2,150.2h514
	c83,0,150.2-67.3,150.2-150.2v-514C868.1,90.8,800.8,23.5,717.8,23.5z M597,609.2c0,46.3-90,83.7-201,83.7c-111,0-201-37.5-201-83.7
	v-37.1c13,10.8,28.9,19.6,46,26.7c41.4,17.3,96.2,27.1,155,27.1c58.8,0,113.7-9.8,155-27.1c17.1-7.1,32.9-15.9,46-26.7V609.2z
	 M597,508.7c0,18.8-15,36.2-40.2,50.2c-1.9,0.1-3.8,2-5.7,3c-37,18.6-92.8,30.5-155.1,30.5c-65.7,0-124.1-13.2-160.8-33.5
	c-25.2-14-40.2-31.4-40.2-50.2v-37.1c13,10.8,28.9,19.6,46,26.7c41.4,17.3,96.2,27.1,155,27.1c58.8,0,113.7-9.8,155-27.1
	c8.2-3.3,16-7.2,23.4-11.4c6.4-3.6,12.4-7.5,18-11.7c1.6-1.2,3-2.4,4.5-3.6V508.7z M594.8,420.5c-4.8,13.8-18.6,26.5-36.6,37.3
	c-0.1,0-0.3,0.1-0.4,0.2c-0.3,0.2-0.6,0.3-0.9,0.5C520.2,478.8,461.7,492,396,492c-62.4,0-118.2-11.8-155.1-30.5c-2-1-3.9-2.9-5.7-3
	c-25.2-14-40.2-31.4-40.2-50.2c0-36.4,55.9-67.5,134-78.9c11-1.7,22.4-2.9,34.2-3.7c10.7-0.7,21.6-1.2,32.8-1.2
	c65.1,0,122.9,12.9,159.6,32.9c26,14.1,41.4,31.7,41.4,50.9C597,411.5,596.3,416.5,594.8,420.5z M731,441.7c0,11-5.2,22-15.6,32.3
	c-17.1,17.1-47.1,31.1-85.1,40.2c0.1-1.8,0.2-3.7,0.2-5.5v-60.6c18.9-5.2,38.2-9.9,54.5-16.7c17.1-7.1,32.9-15.9,46-26.7V441.7z
	 M731,341.3c0,20.2-17.3,38.8-45.9,53.3c-15.4,7.7-33.9,14.2-54.9,19.3c0.1-1.8,0.2-3.7,0.2-5.5c0-22.9-11.1-41.8-25.2-55.9
	c29.6-4.6,56.7-11.9,79.8-21.5c17.1-7.1,32.9-15.9,46-26.7V341.3z M690.8,291c-30.5,16.9-75.8,28.8-128,32.3
	c-3.8-1.8-7.7-3.6-11.7-5.2c-41.4-17.3-96.2-27.1-155-27.1c-8.7,0-17.2,0.2-25.6,0.6l-1.2-0.6C344,277,329,259.6,329,240.8
	c0-46.3,89.1-83.7,201-83.7c111,0,201,37.5,201,83.7C731,259.6,716,277,690.8,291z"/>
<path class="st1" d="M396,626c-58.8,0-113.6-9.8-155-27.1c-17.1-7.1-33-15.9-46-26.7v37.1c0,46.3,90,83.7,201,83.7
	c111,0,201-37.5,201-83.7v-37.1c-13.1,10.8-28.9,19.6-46,26.7C509.7,616.2,454.8,626,396,626z"/>
<path class="st2" d="M369.2,291l1.2,0.6c8.5-0.4,17-0.6,25.6-0.6c58.8,0,113.7,9.8,155,27.1c4,1.7,8,3.5,11.7,5.2
	c52.2-3.6,97.6-15.5,128-32.3c25.2-14,40.2-31.4,40.2-50.2c0-46.3-90-83.7-201-83.7c-111.9,0-201,37.5-201,83.7
	C329,259.6,344,277,369.2,291z"/>
<path class="st1" d="M574.5,487c-7.4,4.2-15.3,8.1-23.4,11.4c-41.4,17.3-96.2,27.1-155,27.1c-58.8,0-113.6-9.8-155-27.1
	c-17.1-7.1-33-15.9-46-26.7v37.1c0,18.8,14.9,36.2,40.2,50.2c36.7,20.3,95.1,33.5,160.8,33.5c62.4,0,118.2-11.8,155.1-30.5
	c1.9-1,3.8-2.9,5.7-3c25.2-14,40.2-31.4,40.2-50.2v-37.1c-1.5,1.2-2.9,2.4-4.5,3.6C586.8,479.4,580.9,483.4,574.5,487z"/>
<path class="st1" d="M555.6,357.4c-36.7-20-94.5-32.9-159.6-32.9c-11.2,0-22.1,0.4-32.8,1.2c-11.8,0.7-23.2,2-34.2,3.7
	c-78.1,11.4-134,42.5-134,78.9c0,18.8,14.9,36.2,40.2,50.2c1.8,0.1,3.7,2,5.7,3C277.8,480.2,333.6,492,396,492
	c65.7,0,124.2-13.2,160.8-33.5c0.3-0.2,0.6-0.3,0.9-0.5c0.1-0.1,0.3-0.2,0.4-0.2c18-10.8,31.8-23.4,36.6-37.3c1.5-4,2.2-9,2.2-12.2
	C597,389.1,581.6,371.5,555.6,357.4z"/>
<path class="st2" d="M605.3,352.3c14.1,14.1,25.2,33,25.2,55.9c0,1.9-0.1,3.8-0.2,5.5c20.9-5,39.5-11.5,54.9-19.3
	c28.6-14.4,45.9-33.1,45.9-53.3v-37.1c-13.1,10.8-28.9,19.6-46,26.7C662,340.4,634.9,347.7,605.3,352.3z"/>
<path class="st2" d="M630.5,448.1v60.6c0,1.9-0.1,3.8-0.2,5.5c38-9.1,68-23.1,85.1-40.2c10.4-10.4,15.6-21.4,15.6-32.3v-37.1
	c-13.1,10.8-28.9,19.6-46,26.7C668.7,438.2,649.4,442.9,630.5,448.1z"/>
</svg>
