<svg width="50" height="50" viewBox="0 0 24 24" fill="none" xmlns="http://www.w3.org/2000/svg">
    <g fill="#000">
        <path
            d="M21.97 18.33c0 .36-.08.73-.25 1.09a4.176 4.176 0 0 1-.68 1.02 5.12 5.12 0 0 1-.592.56c-.326.26-.674.467-1.048.62-.6.25-1.25.38-1.95.38-1.02 0-2.11-.24-3.26-.73s-2.3-1.15-3.44-1.98a28.75 28.75 0 0 1-3.28-2.8 28.414 28.414 0 0 1-2.79-3.27c-.82-1.14-1.48-2.28-1.96-3.41C2.24 8.67 2 7.58 2 6.54c0-.68.12-1.33.36-1.93.24-.61.62-1.17 1.15-1.67C4.15 2.31 4.85 2 5.59 2c.28 0 .56.06.81.18.26.12.49.3.67.56l2.32 3.27c.18.25.31.48.4.7.09.21.14.42.14.61 0 .24-.07.48-.21.71-.13.23-.32.47-.56.71l-.76.79c-.11.11-.16.24-.16.4 0 .08.01.15.03.23.03.08.06.14.08.2.18.33.49.76.93 1.28.45.52.93 1.05 1.45 1.58.54.53 1.06 1.02 1.59 1.47.52.44.95.74 1.29.92.05.02.11.05.18.08.08.03.16.04.25.04.17 0 .3-.06.41-.17l.76-.75c.25-.25.49-.44.72-.56.23-.14.46-.21.71-.21.19 0 .39.04.61.13.22.09.45.22.7.39l3.31 2.35c.26.18.44.39.55.64.1.25.16.5.16.78Z" />
        <path fill-rule="evenodd" clip-rule="evenodd"
            d="M2.99 2.4c.752-.738 1.63-1.15 2.6-1.15.383 0 .773.081 1.13.251.368.171.703.433.964.808L10 5.574c.205.285.366.564.482.846.118.277.198.586.198.9 0 .387-.113.757-.313 1.09-.17.298-.403.586-.671.855l-.69.716c.008.016.017.039.027.065.15.262.415.631.817 1.106.44.509.907 1.024 1.41 1.538.532.522 1.036.996 1.545 1.428.48.407.856.666 1.128.814l.059.026.69-.68a3.84 3.84 0 0 1 .88-.681 2.074 2.074 0 0 1 1.078-.307c.3 0 .596.064.894.186.283.116.56.275.838.464l.006.004 3.313 2.352c.355.247.632.559.806.952l.005.012.004.011a2.8 2.8 0 0 1 .214 1.059c0 .473-.105.952-.322 1.41a4.93 4.93 0 0 1-.802 1.204c-.215.236-.44.45-.68.642a4.99 4.99 0 0 1-1.23.727 5.771 5.771 0 0 1-2.236.437c-1.139 0-2.329-.268-3.554-.79a18.311 18.311 0 0 1-3.587-2.064h-.001a29.498 29.498 0 0 1-3.366-2.873l-.005-.005a29.16 29.16 0 0 1-2.863-3.357l-.003-.003c-.846-1.177-1.536-2.365-2.041-3.555l-.001-.002C1.517 8.886 1.25 7.697 1.25 6.54c0-.768.136-1.513.413-2.207A5.35 5.35 0 0 1 2.99 2.4Z" />
    </g>
</svg>