<?xml version="1.0" encoding="utf-8"?>
<!-- Generator: Adobe Illustrator 19.2.1, SVG Export Plug-In . SVG Version: 6.00 Build 0)  -->
<svg version="1.1" id="Capa_2" xmlns="http://www.w3.org/2000/svg" xmlns:xlink="http://www.w3.org/1999/xlink" x="0px" y="0px"
	 viewBox="0 0 920 852" style="enable-background:new 0 0 920 852;" xml:space="preserve">
<style type="text/css">
	.st0{fill:#F2F2F2;}
	.st1{fill:#1E44AC;}
	.st2{fill:#1E2E57;}
</style>
<path class="st0" d="M725.8,17.5h-514c-83,0-150.2,67.3-150.2,150.2v514c0,83,67.3,150.2,150.2,150.2h514
	c83,0,150.2-67.3,150.2-150.2v-514C876.1,84.8,808.8,17.5,725.8,17.5z M663,428c0,13.3-10.8,24-24,24h-8v48c0,26.5-21.5,48-48,48
	c0,35.3-28.8,64-64,64H382.4L279,671.8c-15.3,8.8-34.9,3.5-43.8-11.8l-80-138.6c-8.9-15.3-3.5-34.9,11.8-43.6l80-46.3
	c0-51.8,27.2-99.7,71.5-126.4l24.5-14.7v120.7c0,42.2,36.4,76,79.5,71.6C459.9,479,487,444.6,487,407l0-51.9h152
	c13.3,0,24,11.6,24,24.9L663,428z M775,361.3l-80,46.3v-28.5c0-30.9-25.1-56-56-56H455V412c0,22.1-17.9,40-40,40
	c-22.1,0-40-17.9-40-40l0-126.4c0-11,5.7-21.2,14.9-27.1c32.2-20,69.3-30.6,107.1-30.6h62.6L663,168.1c15.3-8.8,34.9-3.5,43.8,11.8
	l80,138.6C795.5,333.8,790.3,353.4,775,361.3z"/>
<path class="st1" d="M786.7,318.5l-80-138.6c-8.9-15.3-28.5-20.5-43.8-11.8l-103.4,59.8H497c-37.9,0-74.9,10.6-107.1,30.6
	c-9.2,5.9-14.9,16.1-14.9,27.1l0,126.4c0,22.1,17.9,40,40,40c22.1,0,40-17.9,40-40v-88.9h184c30.9,0,56,25.1,56,56v28.5l80-46.3
	C790.3,353.4,795.5,333.8,786.7,318.5z"/>
<path class="st2" d="M639,355.1H487l0,51.9c0,37.7-27.1,72-64.6,75.8c-43.1,4.3-79.5-29.4-79.5-71.6V290.4l-24.5,14.7
	c-44.3,26.7-71.5,74.6-71.5,126.4l-80,46.3c-15.3,8.8-20.6,28.4-11.8,43.6l80,138.6c8.9,15.3,28.5,20.5,43.8,11.8L382.4,612H519
	c35.3,0,64-28.8,64-64c26.5,0,48-21.5,48-48v-48h8c13.3,0,24-10.8,24-24l0-48C663,366.7,652.3,355.1,639,355.1z"/>
</svg>
